HIERARCHY
ROOT Hips
{
  OFFSET 5.84602e-005 68.8428 3.50346
  CHANNELS 6 Xposition Yposition Zposition Zrotation Xrotation Yrotation
  JOINT Spine
  {
    OFFSET 0 8.597 -4.6522
    CHANNELS 3 Zrotation Xrotation Yrotation
    JOINT Spine1
    {
      OFFSET 0 7.8454 0.4098
      CHANNELS 3 Zrotation Xrotation Yrotation
      JOINT Spine2
      {
        OFFSET 0 9.7078 -2.1609
        CHANNELS 3 Zrotation Xrotation Yrotation
        JOINT Neck
        {
          OFFSET 0 21.8761 -0.4549
          CHANNELS 3 Zrotation Xrotation Yrotation
          JOINT Head
          {
            OFFSET 0 12.3537 3.3602
            CHANNELS 3 Zrotation Xrotation Yrotation
            End Site
            {
              OFFSET 0.0001 18.9506 0.5657
            }
          }
        }
        JOINT LeftShoulder
        {
          OFFSET 2.2086 21.1115 7.2329
          CHANNELS 3 Zrotation Xrotation Yrotation
          JOINT LeftArm
          {
            OFFSET 13.1193 3.0282 -4.8998
            CHANNELS 3 Zrotation Xrotation Yrotation
            JOINT LeftForeArm
            {
              OFFSET 27.4081 -0.0973053 -0.2375
              CHANNELS 3 Zrotation Xrotation Yrotation
              JOINT LeftHand
              {
                OFFSET 22.8641 0.0662994 -0.1369
                CHANNELS 3 Zrotation Xrotation Yrotation
                JOINT LeftHandIndex1
                {
                  OFFSET 8.8614 0.775009 2.4612
                  CHANNELS 3 Zrotation Xrotation Yrotation
                  JOINT LeftHandIndex2
                  {
                    OFFSET 3.3146 -0.808304 0.5841
                    CHANNELS 3 Zrotation Xrotation Yrotation
                    JOINT LeftHandIndex3
                    {
                      OFFSET 2.2628 -0.552002 0.3989
                      CHANNELS 3 Zrotation Xrotation Yrotation
                      End Site
                      {
                        OFFSET 1.6102 -0.4807 0.2612
                      }
                    }
                  }
                }
                JOINT LeftHandMiddle1
                {
                  OFFSET 8.9937 0.895004 0.2143
                  CHANNELS 3 Zrotation Xrotation Yrotation
                  JOINT LeftHandMiddle2
                  {
                    OFFSET 4.0984 0.0113983 -0.0242
                    CHANNELS 3 Zrotation Xrotation Yrotation
                    JOINT LeftHandMiddle3
                    {
                      OFFSET 2.2716 0.00689697 -0.0138001
                      CHANNELS 3 Zrotation Xrotation Yrotation
                      End Site
                      {
                        OFFSET 2.0404 -0.1441 0.0027
                      }
                    }
                  }
                }
                JOINT LeftHandRing1
                {
                  OFFSET 8.5234 0.597198 -2.0164
                  CHANNELS 3 Zrotation Xrotation Yrotation
                  JOINT LeftHandRing2
                  {
                    OFFSET 3.7188 -0.188293 -0.2328
                    CHANNELS 3 Zrotation Xrotation Yrotation
                    JOINT LeftHandRing3
                    {
                      OFFSET 2.1191 -0.106598 -0.1332
                      CHANNELS 3 Zrotation Xrotation Yrotation
                      End Site
                      {
                        OFFSET 1.8737 -0.2304 -0.0886
                      }
                    }
                  }
                }
                JOINT LeftHandPinky1
                {
                  OFFSET 7.9094 -0.601089 -3.4825
                  CHANNELS 3 Zrotation Xrotation Yrotation
                  JOINT LeftHandPinky2
                  {
                    OFFSET 2.2874 -0.477005 -0.6314
                    CHANNELS 3 Zrotation Xrotation Yrotation
                    JOINT LeftHandPinky3
                    {
                      OFFSET 1.6774 -0.349396 -0.4633
                      CHANNELS 3 Zrotation Xrotation Yrotation
                      End Site
                      {
                        OFFSET 1.4888 -0.4091 -0.3416
                      }
                    }
                  }
                }
                JOINT LeftHandThumb1
                {
                  OFFSET 1.833 -1.3875 1.3896
                  CHANNELS 3 Zrotation Xrotation Yrotation
                  JOINT LeftHandThumb2
                  {
                    OFFSET 3.4129 -1.121 2.5732
                    CHANNELS 3 Zrotation Xrotation Yrotation
                    JOINT LeftHandThumb3
                    {
                      OFFSET 2.2474 -0.804199 1.6192
                      CHANNELS 3 Zrotation Xrotation Yrotation
                      End Site
                      {
                        OFFSET 1.6527 -0.5689 1.1317
                      }
                    }
                  }
                }
              }
            }
          }
        }
        JOINT RightShoulder
        {
          OFFSET -2.2086 21.1115 7.2329
          CHANNELS 3 Zrotation Xrotation Yrotation
          JOINT RightArm
          {
            OFFSET -13.1216 3.0287 -4.9007
            CHANNELS 3 Zrotation Xrotation Yrotation
            JOINT RightForeArm
            {
              OFFSET -27.4081 -0.0973053 -0.2375
              CHANNELS 3 Zrotation Xrotation Yrotation
              JOINT RightHand
              {
                OFFSET -22.8641 0.0664063 -0.1369
                CHANNELS 3 Zrotation Xrotation Yrotation
                JOINT RightHandIndex1
                {
                  OFFSET -8.8614 0.774994 2.4612
                  CHANNELS 3 Zrotation Xrotation Yrotation
                  JOINT RightHandIndex2
                  {
                    OFFSET -3.3146 -0.808304 0.5841
                    CHANNELS 3 Zrotation Xrotation Yrotation
                    JOINT RightHandIndex3
                    {
                      OFFSET -2.2628 -0.552002 0.3989
                      CHANNELS 3 Zrotation Xrotation Yrotation
                      End Site
                      {
                        OFFSET -1.6102 -0.4807 0.2612
                      }
                    }
                  }
                }
                JOINT RightHandMiddle1
                {
                  OFFSET -8.9937 0.894989 0.2143
                  CHANNELS 3 Zrotation Xrotation Yrotation
                  JOINT RightHandMiddle2
                  {
                    OFFSET -4.0984 0.0113983 -0.0242
                    CHANNELS 3 Zrotation Xrotation Yrotation
                    JOINT RightHandMiddle3
                    {
                      OFFSET -2.2716 0.00691223 -0.0138001
                      CHANNELS 3 Zrotation Xrotation Yrotation
                      End Site
                      {
                        OFFSET -2.0404 -0.1441 0.0027
                      }
                    }
                  }
                }
                JOINT RightHandRing1
                {
                  OFFSET -8.5234 0.597198 -2.0164
                  CHANNELS 3 Zrotation Xrotation Yrotation
                  JOINT RightHandRing2
                  {
                    OFFSET -3.7188 -0.188309 -0.2328
                    CHANNELS 3 Zrotation Xrotation Yrotation
                    JOINT RightHandRing3
                    {
                      OFFSET -2.1191 -0.106598 -0.1332
                      CHANNELS 3 Zrotation Xrotation Yrotation
                      End Site
                      {
                        OFFSET -1.8737 -0.2304 -0.0886
                      }
                    }
                  }
                }
                JOINT RightHandPinky1
                {
                  OFFSET -7.9094 -0.601105 -3.4825
                  CHANNELS 3 Zrotation Xrotation Yrotation
                  JOINT RightHandPinky2
                  {
                    OFFSET -2.2874 -0.477005 -0.6314
                    CHANNELS 3 Zrotation Xrotation Yrotation
                    JOINT RightHandPinky3
                    {
                      OFFSET -1.6774 -0.349396 -0.4633
                      CHANNELS 3 Zrotation Xrotation Yrotation
                      End Site
                      {
                        OFFSET -1.4888 -0.4091 -0.3416
                      }
                    }
                  }
                }
                JOINT RightHandThumb1
                {
                  OFFSET -1.833 -1.38751 1.3896
                  CHANNELS 3 Zrotation Xrotation Yrotation
                  JOINT RightHandThumb2
                  {
                    OFFSET -3.41299 -1.12099 2.5732
                    CHANNELS 3 Zrotation Xrotation Yrotation
                    JOINT RightHandThumb3
                    {
                      OFFSET -2.24741 -0.804108 1.6192
                      CHANNELS 3 Zrotation Xrotation Yrotation
                      End Site
                      {
                        OFFSET -1.6527 -0.5689 1.1317
                      }
                    }
                  }
                }
              }
            }
          }
        }
      }
    }
  }
  JOINT RightUpLeg
  {
    OFFSET -9.1966 3.8861 -0.7581
    CHANNELS 3 Zrotation Xrotation Yrotation
    JOINT RightLeg
    {
      OFFSET -0.7359 -41.0265 0
      CHANNELS 3 Zrotation Xrotation Yrotation
      JOINT RightFoot
      {
        OFFSET 0 -40.2855 0
        CHANNELS 3 Zrotation Xrotation Yrotation
        JOINT RightToeBase
        {
          OFFSET 0 -5.6122 11.7359
          CHANNELS 3 Zrotation Xrotation Yrotation
          End Site
          {
            OFFSET 0 0 7.8731
          }
        }
      }
    }
  }
  JOINT LeftUpLeg
  {
    OFFSET 9.1965 3.8864 -0.7581
    CHANNELS 3 Zrotation Xrotation Yrotation
    JOINT LeftLeg
    {
      OFFSET 0.7359 -41.0268 0
      CHANNELS 3 Zrotation Xrotation Yrotation
      JOINT LeftFoot
      {
        OFFSET 0 -40.2855 0
        CHANNELS 3 Zrotation Xrotation Yrotation
        JOINT LeftToeBase
        {
          OFFSET 0 -5.6122 11.7359
          CHANNELS 3 Zrotation Xrotation Yrotation
          End Site
          {
            OFFSET 0 0 7.8731
          }
        }
      }
    }
  }
}
MOTION
Frames:	4
Frame Time:	0.0333333
5.84602e-005 68.8428 3.50346 0 0 -0 0 0 -0 0 0 -0 0 0 -0 0 0 -0 0 0 -0 0 0 -0 0 0 -0 0 0 -0 0 0 -0 0 0 -0 0 0 -0 0 0 -0 0 0 -0 -0.0146107 -8.87603e-005 -2.63497e-007 2.99804e-018 -2.42657e-020 -1.42182e-022 0 0 -0 -0.0187562 -0.001176 5.858e-005 5.06224e-018 3.88251e-019 1.21329e-020 0 0 -0 -0.012269 -0.00324817 0.000675346 -1.74678e-018 3.88251e-019 -0 0 0 -0 0 0 -0 0 0 -0 0 0 -0 0 0 -0 0 0 -0 0 0 -0 0 0 -0 0 0 -0 0 0 -0 0 0 -0 0.0149955 -9.10982e-005 2.64101e-007 -9.69331e-018 1.21329e-020 -4.7394e-023 0 0 -0 0.0189956 -0.00119102 -5.96516e-005 -5.41541e-019 0 2.42657e-020 0 0 -0 0.0122698 -0.00324857 -0.000673756 -2.00796e-019 0 -1.94126e-019 0 0 -0 0 0 -0 0 0 -0 3.39842 1.33031 -0.0637918 -5.65207e-008 0.834868 -0.000436188 -3.39935 -2.16518 -0.0642563 -8.89002e-024 -1.18485e-023 -1.48106e-024 -3.39844 1.35642 0.0640283 -3.18788e-007 0.782166 -0.000588827 3.39931 -2.13858 0.0634662 1.1399e-023 0 -0 
1.1647 13.4913 20.9507 -170.689 -78.377 -1.54118 -0.0740633 -5.18733 -0.308702 -0.177429 -10.3742 -0.62806 -0.177427 -10.3742 -0.628053 0.115811 0.292713 0.0940957 9.2374e-007 0.140071 1.11523e-006 16.0481 -0.392421 -9.77225 -19.9709 -16.9489 -36.0264 2.94014 7.78299 -57.2866 63.7136 -0.0977154 -0.320507 -1.62418e-031 3.90115e-015 2.38542e-015 -3.97569e-016 8.69683e-016 1.59028e-015 -1.19271e-015 9.44227e-016 1.59028e-015 -1.62418e-031 3.90115e-015 2.38542e-015 -0.0146083 -8.87173e-005 -1.32798e-006 -3.97569e-016 -1.88845e-015 1.59028e-015 -1.62418e-031 3.90115e-015 2.38542e-015 -0.018748 -0.00117551 5.83908e-005 -7.95139e-016 1.68967e-015 -0 -1.62418e-031 3.90115e-015 2.38542e-015 -0.0122362 -0.00324002 0.000672221 -7.95139e-016 3.52843e-015 7.95139e-016 -1.62418e-031 3.90115e-015 2.38542e-015 -3.97569e-016 8.69683e-016 1.59028e-015 -1.19271e-015 9.44227e-016 1.59028e-015 20.1006 0.0196446 -1.51611 8.94776 9.97906 48.7408 -12.3312 -14.1768 33.6177 -63.6416 0.03811 0.218914 -2.38542e-015 -3.97569e-016 9.54166e-015 -2.45562e-007 -1.75832e-007 2.99216e-006 -3.7402e-007 2.02278e-007 -3.06953e-008 -2.38542e-015 -3.97569e-016 9.54166e-015 0.0149965 -9.21028e-005 -4.87732e-006 -3.74023e-007 2.02274e-007 -3.07215e-008 -2.38542e-015 -3.97569e-016 9.54166e-015 0.0190111 -0.00119349 -5.76362e-005 -3.74024e-007 2.02273e-007 -3.07249e-008 -2.38542e-015 -3.97569e-016 9.54166e-015 0.012288 -0.00325327 -0.000670269 -6.15113e-007 5.85484e-007 4.44486e-007 -2.38542e-015 -3.97569e-016 9.54166e-015 -2.45562e-007 -1.75832e-007 2.99216e-006 -3.7402e-007 2.02278e-007 -3.06953e-008 -30.2226 -54.3168 -46.9258 5.75679 48.8929 -3.31216 -12.4401 52.9041 15.8013 -3.81558e-006 -5.51655e-007 -8.31891e-007 28.9077 -54.2163 45.6149 -5.85798 47.2239 3.75807 12.2654 52.7662 -15.5124 -9.96804e-007 3.15824e-006 5.26402e-007 
0.805101 16.7842 19.8524 178.468 -76.74 -1.20172 -0.0749805 -4.62153 -0.288433 -0.174244 -9.24255 -0.585831 -0.174244 -9.24256 -0.58583 0.173566 0.50428 0.0191746 -1.31973e-007 0.0266279 1.69545e-007 14.1019 0.902326 -10.8494 -17.9337 -16.5231 -33.3142 2.33189 7.96683 -52.1554 59.8322 -0.445518 -1.46623 -8.89929e-007 -3.2636e-007 1.03792e-008 -5.81399e-007 -6.17059e-007 -3.65425e-008 -2.7287e-007 -9.07759e-007 -8.34641e-008 -8.89929e-007 -3.2636e-007 1.03792e-008 -0.0145927 -8.84708e-005 -2.70106e-006 -2.7286e-007 -9.07748e-007 -8.35795e-008 -8.89929e-007 -3.2636e-007 1.03792e-008 -0.0187954 -0.00117992 5.51808e-005 1.53775e-007 -4.22791e-007 -3.42645e-007 -8.89929e-007 -3.2636e-007 1.03792e-008 -0.0122663 -0.00324804 0.000675708 -2.72869e-007 -9.07746e-007 -8.3554e-008 -8.89929e-007 -3.2636e-007 1.03792e-008 -5.81399e-007 -6.17059e-007 -3.65425e-008 -2.7287e-007 -9.07759e-007 -8.34641e-008 19.7005 0.708912 -0.603679 8.79409 9.73389 44.9882 -11.9701 -13.5572 30.5991 -59.4939 0.177098 1.00045 1.59028e-015 4.77083e-015 6.36111e-015 1.59028e-015 4.77083e-015 3.18055e-015 -7.4165e-007 4.04894e-007 -1.0859e-007 1.59028e-015 4.77083e-015 6.36111e-015 0.0150155 -9.08821e-005 2.08456e-007 -9.59495e-007 1.95066e-007 -6.57449e-007 1.59028e-015 4.77083e-015 6.36111e-015 0.0189746 -0.001187 -5.8661e-005 -7.41642e-007 4.04875e-007 -1.08649e-007 1.59028e-015 4.77083e-015 6.36111e-015 0.0123032 -0.00325831 -0.000678807 -7.41649e-007 4.04876e-007 -1.08613e-007 1.59028e-015 4.77083e-015 6.36111e-015 1.59028e-015 4.77083e-015 3.18055e-015 -7.4165e-007 4.04894e-007 -1.0859e-007 -21.3892 -49.3574 -37.1553 5.45378 44.8583 -3.02488 -8.92643 50.1597 12.1099 -2.04989e-006 4.21744e-006 -2.23704e-007 20.6199 -48.9334 36.2967 -5.56594 43.7348 4.49446 9.91265 49.3644 -13.5326 2.61839e-007 -3.2943e-006 5.77298e-008 
0.801168 16.0816 19.4843 178.277 -79.5641 -1.42348 -0.0796519 -4.37287 -0.286616 -0.182117 -8.7453 -0.581905 -0.182117 -8.74528 -0.581905 0.234714 0.720977 -0.0466091 -1.44289e-007 -0.0727795 1.94489e-007 13.1812 2.13545 -12.3947 -17.6954 -16.6871 -32.8945 2.34161 7.97058 -50.5015 59.6995 -0.777148 -2.56808 -1.03451e-031 1.49089e-014 3.97569e-016 -2.73841e-007 -9.07584e-007 -8.25986e-008 3.18055e-015 3.97569e-016 3.97569e-016 -1.03451e-031 1.49089e-014 3.97569e-016 -0.0146434 -8.80606e-005 -3.02537e-006 3.18055e-015 -1.09332e-015 1.59028e-015 -1.03451e-031 1.49089e-014 3.97569e-016 -0.0187627 -0.00117766 5.60535e-005 -4.77083e-015 2.38542e-015 3.97569e-016 -1.03451e-031 1.49089e-014 3.97569e-016 -0.0122694 -0.00324896 0.000681441 -1.59028e-015 1.09332e-015 -0 -1.03451e-031 1.49089e-014 3.97569e-016 -2.73841e-007 -9.07584e-007 -8.25986e-008 3.18055e-015 3.97569e-016 3.97569e-016 20.4315 1.37221 0.165986 8.68831 9.57881 44.1986 -11.8653 -13.4899 29.7092 -59.114 0.315811 1.75022 7.41986e-007 -4.04378e-007 1.08714e-007 7.06225e-031 -6.36111e-015 6.36111e-015 7.41986e-007 -4.04378e-007 1.08714e-007 7.41986e-007 -4.04378e-007 1.08714e-007 0.0149881 -9.1306e-005 -1.8447e-006 7.41978e-007 -4.04363e-007 1.08766e-007 7.41986e-007 -4.04378e-007 1.08714e-007 0.0190111 -0.00119318 -5.61887e-005 7.41978e-007 -4.04359e-007 1.08773e-007 7.41986e-007 -4.04378e-007 1.08714e-007 0.0122804 -0.00325248 -0.00068266 7.41985e-007 -4.0436e-007 1.08737e-007 7.41986e-007 -4.04378e-007 1.08714e-007 7.06225e-031 -6.36111e-015 6.36111e-015 7.41986e-007 -4.04378e-007 1.08714e-007 -19.0163 -46.1825 -33.7166 5.56232 43.873 -4.14724 -8.61473 50.1681 12.2484 3.97569e-015 3.18055e-015 -0 18.2267 -45.6536 32.9347 -5.58991 42.5877 4.39379 8.3176 49.6409 -11.9353 1.03634e-006 2.05324e-006 1.53642e-007 
